<svg width="14" height="27" viewBox="0 0 14 27" fill="none" xmlns="http://www.w3.org/2000/svg">
<path d="M0.650643 1.10348C0.459844 1.29882 0.353027 1.56104 0.353027 1.8341C0.353027 2.10716 0.459844 2.36939 0.650643 2.56473L11.3103 13.5L0.650643 24.4332C0.459844 24.6285 0.353027 24.8907 0.353027 25.1638C0.353027 25.4369 0.459844 25.6991 0.650643 25.8944C0.743385 25.9897 0.854268 26.0654 0.976749 26.1171C1.09923 26.1688 1.23083 26.1954 1.36377 26.1954C1.49671 26.1954 1.62831 26.1688 1.75079 26.1171C1.87327 26.0654 1.98415 25.9897 2.07689 25.8944L13.4125 14.2635C13.6116 14.0592 13.723 13.7853 13.723 13.5C13.723 13.2148 13.6116 12.9409 13.4125 12.7366L2.07689 1.10567C1.98415 1.01041 1.87327 0.934708 1.75079 0.883014C1.62831 0.83132 1.49671 0.804688 1.36377 0.804688C1.23083 0.804688 1.09923 0.83132 0.976749 0.883014C0.854268 0.934708 0.743385 1.01041 0.650643 1.10567V1.10348Z" fill="#272829"/>
</svg>
