<svg width="50" height="50" viewBox="0 0 50 50" fill="none" xmlns="http://www.w3.org/2000/svg">
<path d="M25 0C20.0555 0 15.222 1.46622 11.1108 4.21326C6.99952 6.96029 3.79521 10.8648 1.90302 15.4329C0.010832 20.0011 -0.484251 25.0277 0.480379 29.8773C1.44501 34.7268 3.82603 39.1814 7.32234 42.6777C10.8187 46.174 15.2732 48.555 20.1227 49.5196C24.9723 50.4842 29.9989 49.9892 34.5671 48.097C39.1352 46.2048 43.0397 43.0005 45.7867 38.8892C48.5338 34.778 50 29.9445 50 25C49.993 18.3717 47.3568 12.017 42.6699 7.33006C37.9831 2.64317 31.6283 0.00699956 25 0ZM26.9231 9.46634L32.8822 5.36779C36.2941 6.74217 39.2908 8.97853 41.5793 11.8582L39.6563 18.3341C39.6082 18.3341 39.5577 18.3582 39.5096 18.375L34.024 20.1562C33.9417 20.1826 33.8614 20.2147 33.7837 20.2524L26.9231 15.5337V9.46634ZM17.125 5.36779L23.0769 9.46634V15.5337L16.2115 20.262C16.1338 20.2243 16.0535 20.1922 15.9712 20.1659L10.4856 18.3846C10.4375 18.3678 10.387 18.3558 10.339 18.3437L8.41587 11.8678C10.7065 8.98296 13.7077 6.74307 17.125 5.36779ZM14 36.399H7.18751C5.19335 33.2985 4.05011 29.7278 3.87261 26.0457L9.16107 21.988C9.20656 22.0081 9.2531 22.0257 9.30049 22.0409L14.7885 23.8245C14.8618 23.8467 14.9365 23.8643 15.012 23.8774L17.6058 31.4303C17.5697 31.4736 17.5337 31.5168 17.5 31.5625L14.1106 36.2284C14.0707 36.2832 14.0338 36.3402 14 36.399ZM30.4543 45.4327C26.8804 46.3846 23.1196 46.3846 19.5457 45.4327L17.1274 38.6058C17.1587 38.5673 17.1923 38.5312 17.2212 38.4904L20.613 33.8221C20.6529 33.7681 20.6898 33.7119 20.7236 33.6538H29.2764C29.3102 33.7119 29.3471 33.7681 29.387 33.8221L32.7789 38.4904C32.8077 38.5312 32.8414 38.5673 32.8726 38.6058L30.4543 45.4327ZM36 36.3918C35.9663 36.333 35.9293 36.276 35.8894 36.2211L32.4976 31.5625C32.4639 31.5168 32.4279 31.4736 32.3918 31.4303L34.9856 23.8774C35.0611 23.8643 35.1358 23.8467 35.2091 23.8245L40.6971 22.0409C40.7445 22.0257 40.791 22.0081 40.8365 21.988L46.125 26.0457C45.9475 29.7278 44.8043 33.2985 42.8101 36.399L36 36.3918Z" fill="#272829"/>
</svg>
