<svg width="30" height="30" viewBox="0 0 30 30" fill="none" xmlns="http://www.w3.org/2000/svg">
<path fill-rule="evenodd" clip-rule="evenodd" d="M15.9375 19.2163C16.8034 19.9108 17.8759 20.2974 18.9858 20.315C20.0958 20.3326 21.18 19.9802 22.0675 19.3134C22.9551 18.6467 23.5954 17.7035 23.8876 16.6325C24.1798 15.5616 24.1072 14.4239 23.6812 13.3987C23.3247 12.5377 22.7346 11.7934 21.9775 11.25C22.6229 10.7873 23.1487 10.1775 23.5113 9.47095C23.874 8.76443 24.0629 7.98164 24.0625 7.1875C24.0625 5.86142 23.5357 4.58965 22.598 3.65197C21.6603 2.71428 20.3885 2.1875 19.0625 2.1875H10.9375C9.879 2.18746 8.84783 2.52331 7.99243 3.14671C7.13703 3.7701 6.50153 4.64886 6.17743 5.65648C5.85332 6.66409 5.85734 7.74856 6.1889 8.75374C6.52046 9.75893 7.16246 10.633 8.02245 11.25C7.37726 11.7129 6.8516 12.3228 6.489 13.0293C6.12639 13.7358 5.93726 14.5184 5.93726 15.3125C5.93726 16.1066 6.12639 16.8892 6.489 17.5957C6.8516 18.3022 7.37726 18.9121 8.02245 19.375C7.32637 19.8745 6.77031 20.5444 6.40761 21.3206C6.04491 22.0968 5.88774 22.9532 5.95117 23.8076C6.0146 24.6619 6.29651 25.4857 6.76985 26.1998C7.2432 26.9139 7.89209 27.4944 8.6543 27.8856C9.4165 28.2769 10.2664 28.4657 11.1226 28.4339C11.9788 28.4022 12.8124 28.151 13.5436 27.7045C14.2747 27.2579 14.8789 26.631 15.2981 25.8838C15.7173 25.1366 15.9374 24.2942 15.9375 23.4375V19.2163ZM10.9375 4.0625C10.1086 4.0625 9.31379 4.39174 8.72774 4.97779C8.14169 5.56384 7.81245 6.3587 7.81245 7.1875C7.81245 8.0163 8.14169 8.81116 8.72774 9.39721C9.31379 9.98326 10.1086 10.3125 10.9375 10.3125H14.0625V4.0625H10.9375ZM14.0625 20.3125H10.9375C10.3194 20.3125 9.7152 20.4958 9.20129 20.8392C8.68739 21.1825 8.28685 21.6706 8.05033 22.2416C7.8138 22.8126 7.75192 23.441 7.8725 24.0472C7.99307 24.6533 8.2907 25.2102 8.72774 25.6472C9.16478 26.0842 9.7216 26.3819 10.3278 26.5025C10.934 26.623 11.5623 26.5611 12.1333 26.3246C12.7044 26.0881 13.1924 25.6876 13.5358 25.1737C13.8792 24.6598 14.0625 24.0556 14.0625 23.4375V20.3125ZM10.9375 12.1875C10.1086 12.1875 9.31379 12.5167 8.72774 13.1028C8.14169 13.6888 7.81245 14.4837 7.81245 15.3125C7.81245 16.1413 8.14169 16.9362 8.72774 17.5222C9.31379 18.1083 10.1086 18.4375 10.9375 18.4375H14.0625V12.1875H10.9375ZM15.9375 15.3125C15.9375 16.1415 16.2668 16.9365 16.8529 17.5227C17.4391 18.1088 18.2341 18.4381 19.0631 18.4381C19.892 18.4381 20.6871 18.1088 21.2732 17.5227C21.8594 16.9365 22.1887 16.1415 22.1887 15.3125C22.1887 14.4835 21.8594 13.6885 21.2732 13.1023C20.6871 12.5162 19.892 12.1869 19.0631 12.1869C18.2341 12.1869 17.4391 12.5162 16.8529 13.1023C16.2668 13.6885 15.9375 14.4835 15.9375 15.3125ZM19.0625 10.3125C19.8913 10.3125 20.6861 9.98326 21.2722 9.39721C21.8582 8.81116 22.1875 8.0163 22.1875 7.1875C22.1875 6.3587 21.8582 5.56384 21.2722 4.97779C20.6861 4.39174 19.8913 4.0625 19.0625 4.0625H15.9375V10.3125H19.0625Z" fill="#F5F5F5"/>
</svg>
