<svg width="29" height="30" viewBox="0 0 29 30" fill="none" xmlns="http://www.w3.org/2000/svg">
<path d="M10.8379 24.4453C11.1505 24.3577 11.4113 24.163 11.5628 23.9041C11.7144 23.6453 11.7443 23.3433 11.646 23.0648C11.5477 22.7863 11.3292 22.554 11.0386 22.419C10.7481 22.2839 10.4092 22.2573 10.0966 22.3449L10.8379 24.4453ZM1.82362 17.9284L0.627641 17.6466L0 19.7778L1.19598 20.0574L1.82362 17.9262V17.9284ZM19.1159 28.8992V30H21.5869V28.8992H19.1159ZM19.2716 18.3027L19.1381 17.2084C18.9059 17.2306 18.6855 17.3109 18.5025 17.4402C18.3194 17.5694 18.1812 17.7421 18.1039 17.9385C18.0266 18.1348 18.0133 18.3466 18.0656 18.5494C18.1178 18.7522 18.2336 18.9377 18.3993 19.0842L19.2691 18.3049L19.2716 18.3027ZM27.7645 9.99366H29V9.98705L27.7645 9.99366ZM25.7061 5.57496L24.5546 5.17866C24.4685 5.37716 24.4488 5.59365 24.4979 5.80192C24.547 6.01019 24.6629 6.20131 24.8314 6.35214L25.7061 5.57496ZM25.5826 1.13424L26.7094 0.685106C26.6356 0.538763 26.5268 0.408553 26.3907 0.303589C26.2545 0.198626 26.0942 0.121446 25.9211 0.0774523L25.5826 1.13424ZM20.213 2.87794L19.9017 3.94354C20.0676 3.98215 20.2407 3.98957 20.41 3.96531C20.5794 3.94105 20.7412 3.88565 20.8851 3.80263L20.213 2.87794ZM10.6057 2.87794L9.93354 3.80263C10.0775 3.88565 10.2393 3.94105 10.4086 3.96531C10.5779 3.98957 10.7511 3.98215 10.917 3.94354L10.6057 2.87794ZM5.23611 1.13644L4.89758 0.0796538C4.72398 0.123364 4.56323 0.200415 4.42662 0.305393C4.29002 0.410371 4.18087 0.540729 4.10685 0.687308L5.23611 1.13644ZM5.11256 5.57716L5.9873 6.35434C6.15629 6.20332 6.2724 6.01181 6.32153 5.8031C6.37066 5.59439 6.3507 5.37745 6.26406 5.17866L5.11256 5.57716ZM3.05419 10.0311H4.28971V10.0267L3.05419 10.0311ZM11.5496 18.3049L12.4194 19.0864C12.584 18.9406 12.6992 18.7565 12.7517 18.555C12.8042 18.3536 12.792 18.143 12.7165 17.9475C12.6409 17.7519 12.505 17.5793 12.3244 17.4494C12.1439 17.3195 11.9258 17.2375 11.6954 17.2129L11.5471 18.3049H11.5496ZM10.4673 21.1934H11.7028L11.7003 21.112L10.4673 21.1934ZM9.23177 28.8992V30H11.7028V28.8992H9.23177ZM10.0966 22.3449C8.6066 22.7632 7.66019 22.717 7.03255 22.532C6.41232 22.3493 5.93541 21.9816 5.47827 21.4532C5.23931 21.1684 5.01663 20.873 4.81109 20.5682C4.60106 20.2621 4.36137 19.9033 4.11921 19.584C3.64724 18.9654 2.95041 18.1904 1.82362 17.9262L1.19598 20.0574C1.39366 20.1014 1.65065 20.2665 2.07319 20.8191C2.27582 21.0877 2.46856 21.374 2.71072 21.7262C2.943 22.0609 3.20987 22.4307 3.51875 22.7918C4.14392 23.5184 4.99642 24.2515 6.26159 24.6236C7.52181 24.9935 9.01926 24.9538 10.8379 24.4453L10.0966 22.3449ZM21.5869 21.0569C21.5869 20.3568 21.5523 19.7183 21.3299 19.1239C21.0927 18.4898 20.6825 18.001 20.1414 17.5233L18.3993 19.0864C18.7823 19.4233 18.9133 19.6259 18.9849 19.8196C19.0714 20.0508 19.1159 20.3788 19.1159 21.0569H21.5869ZM19.4025 19.3991C21.6339 19.1855 24.0678 18.6835 25.9433 17.2371C27.8707 15.751 29 13.4304 29 9.99366H26.529C26.529 12.9857 25.5653 14.6171 24.3248 15.5726C23.03 16.5722 21.2163 17.0103 19.1381 17.2084L19.4025 19.3991ZM29 9.98705C28.9926 8.03976 28.1223 6.17389 26.5784 4.79558L24.8314 6.35214C25.9137 7.32086 26.524 8.62644 26.529 9.99366L29 9.98705ZM26.8576 5.97125C27.2283 5.12582 27.4012 4.22315 27.3765 3.31387L24.9055 3.36891C24.9236 3.98544 24.8043 4.59904 24.5546 5.17426L26.8576 5.97125ZM27.3765 3.31387C27.3515 2.40621 27.1248 1.51417 26.7094 0.685106L24.4533 1.58118C24.7375 2.1448 24.8882 2.75245 24.9055 3.36891L27.3765 3.31387ZM25.5826 1.13424C25.9211 0.0752507 25.9211 0.0730488 25.9186 0.0730488H25.9112L25.9013 0.0686456C25.8768 0.0627756 25.8521 0.0576357 25.8272 0.0532341C25.6546 0.0224671 25.4793 0.00479059 25.3033 0.000394574C24.8795 -0.00445723 24.4564 0.0354505 24.0431 0.119283C22.9929 0.319633 21.5128 0.817205 19.5458 1.95105L20.8851 3.80043C22.6618 2.77887 23.8652 2.40459 24.562 2.27249C24.8099 2.22168 25.064 2.19948 25.3182 2.20644L25.2984 2.20424C25.2901 2.20291 25.2819 2.20144 25.2737 2.19984L25.2589 2.19543H25.2514L25.2465 2.19323C25.244 2.19323 25.2416 2.19323 25.5826 1.13204V1.13424ZM20.5244 1.81015C17.1704 1.03143 13.6483 1.03143 10.2943 1.81015L10.917 3.94354C13.8627 3.25956 16.956 3.25956 19.9017 3.94354L20.5244 1.81015ZM11.2753 1.95105C9.3059 0.819406 7.82328 0.321835 6.77309 0.123687C6.35967 0.0405532 5.93664 0.00138418 5.51287 0.00699955C5.31244 0.0118661 5.113 0.0339854 4.91735 0.0730488L4.90746 0.0774523H4.90005L5.23611 1.13644L5.57464 2.19543L5.56723 2.19764L5.55982 2.19984C5.54672 2.20307 5.53354 2.20601 5.52028 2.20864C5.76788 2.20294 6.01529 2.22733 6.25665 2.27689C6.95348 2.40899 8.15687 2.78107 9.93354 3.80263L11.2753 1.95545V1.95105ZM4.10932 0.682904C3.69397 1.51199 3.4672 2.40621 3.44214 3.31387L5.91317 3.36891C5.92785 2.75201 6.08163 2.14405 6.36537 1.58118L4.10932 0.682904ZM3.44214 3.31387C3.41743 4.22315 3.59041 5.12582 3.96106 5.97125L6.26406 5.17426C6.01353 4.59919 5.89343 3.98559 5.9107 3.36891L3.43967 3.31387H3.44214ZM4.23782 4.79558C3.46838 5.48335 2.85875 6.29959 2.44385 7.19757L4.72708 8.03419C5.01866 7.40672 5.44862 6.8343 5.9873 6.34994L4.23782 4.79558ZM2.44385 7.19757C2.02819 8.09621 1.81574 9.05913 1.81868 10.0311L4.28971 10.0267C4.28971 9.34417 4.43797 8.66827 4.72708 8.0386L2.44385 7.20197V7.19757ZM1.81868 10.0311C1.81868 13.4502 2.95041 15.7488 4.88028 17.2261C6.75085 18.6571 9.17987 19.1635 11.4038 19.3991L11.6954 17.2129C9.60242 16.9883 7.78868 16.548 6.48892 15.5528C5.24847 14.6039 4.28971 12.9945 4.28971 10.0267H1.81868V10.0311ZM10.6773 17.5255C9.4418 18.6219 9.12304 19.9253 9.23424 21.2771L11.7003 21.112C11.6262 20.2137 11.8313 19.6082 12.4219 19.0842L10.6798 17.5233L10.6773 17.5255ZM9.23177 21.1934V28.8992H11.7028V21.1934H9.23177ZM21.5869 28.8992V25.5967H19.1159V28.8992H21.5869ZM21.5869 25.5967V21.0569H19.1159V25.5967H21.5869Z" fill="#F5F5F5"/>
</svg>
