<svg width="42" height="44" viewBox="0 0 42 44" fill="none" xmlns="http://www.w3.org/2000/svg">
<path d="M27 12C28.3261 12 29.5979 11.4732 30.5355 10.5355C31.4732 9.59785 32 8.32608 32 7C32 5.67392 31.4732 4.40215 30.5355 3.46447C29.5979 2.52678 28.3261 2 27 2C25.6739 2 24.4021 2.52678 23.4645 3.46447C22.5268 4.40215 22 5.67392 22 7C22 8.32608 22.5268 9.59785 23.4645 10.5355C24.4021 11.4732 25.6739 12 27 12Z" stroke="black" stroke-width="4" stroke-miterlimit="2"/>
<path d="M17 44C17.7956 44 18.5587 43.6839 19.1213 43.1213C19.6839 42.5587 20 41.7956 20 41C20 40.2044 19.6839 39.4413 19.1213 38.8787C18.5587 38.3161 17.7956 38 17 38C16.2044 38 15.4413 38.3161 14.8787 38.8787C14.3161 39.4413 14 40.2044 14 41C14 41.7956 14.3161 42.5587 14.8787 43.1213C15.4413 43.6839 16.2044 44 17 44Z" fill="black"/>
<path d="M22.38 16.9102L18 25.0002M18 25.0002L25.31 31.0202C25.62 31.2602 25.84 31.5902 25.97 31.9602L29 42.0002M18 25.0002L12.51 32.6402C11.97 33.4302 10.95 33.7302 10.07 33.3602L2 30.0002" stroke="black" stroke-width="4" stroke-miterlimit="2" stroke-linecap="round" stroke-linejoin="round"/>
<path d="M40 21.9999H33C32.64 21.9999 32.28 21.9099 31.96 21.7299L28.75 19.9199C24.74 17.5699 20.35 15.9599 15.78 15.1399L12.56 14.5699C12.11 14.4899 11.64 14.5699 11.24 14.7899L5 17.9999" stroke="black" stroke-width="4" stroke-miterlimit="2" stroke-linecap="round" stroke-linejoin="round"/>
</svg>
