<svg width="30" height="29" viewBox="0 0 30 29" fill="none" xmlns="http://www.w3.org/2000/svg">
<path d="M6.29591 3.22365C6.29549 4.07819 5.96343 4.89756 5.37278 5.50151C4.78213 6.10546 3.98127 6.44451 3.14638 6.44409C2.31149 6.44366 1.51096 6.10379 0.920902 5.49923C0.330841 4.89468 -0.000417051 4.07497 3.94063e-07 3.22043C0.000417839 2.36589 0.332477 1.54652 0.923128 0.942576C1.51378 0.338627 2.31464 -0.000426866 3.14953 4.03338e-07C3.98442 0.000427673 4.78495 0.340302 5.37501 0.944854C5.96507 1.54941 6.29633 2.36912 6.29591 3.22365ZM6.39035 8.83001H0.0944389V29H6.39035V8.83001ZM16.3379 8.83001H10.0735V29H16.2749V18.4156C16.2749 12.5192 23.7828 11.9715 23.7828 18.4156V29H30V16.2246C30 6.2846 18.8877 6.65513 16.2749 11.5365L16.3379 8.83001Z" fill="#F5F5F5"/>
</svg>
