<svg width="50" height="52" viewBox="0 0 50 52" fill="none" xmlns="http://www.w3.org/2000/svg">
<mask id="mask0_151_303" style="mask-type:luminance" maskUnits="userSpaceOnUse" x="-1" y="0" width="52" height="52">
<path d="M32.2636 13.9048C33.8688 13.9048 35.4083 13.2776 36.5434 12.1614C37.6785 11.0451 38.3162 9.53105 38.3162 7.95238C38.3162 6.37371 37.6785 4.8597 36.5434 3.74341C35.4083 2.62712 33.8688 2 32.2636 2C30.6583 2 29.1188 2.62712 27.9837 3.74341C26.8486 4.8597 26.2109 6.37371 26.2109 7.95238C26.2109 9.53105 26.8486 11.0451 27.9837 12.1614C29.1188 13.2776 30.6583 13.9048 32.2636 13.9048Z" fill="white" stroke="white" stroke-width="4" stroke-miterlimit="2"/>
<path d="M20.1579 51.9998C21.1211 51.9998 22.0448 51.6235 22.7259 50.9537C23.4069 50.284 23.7895 49.3756 23.7895 48.4284C23.7895 47.4812 23.4069 46.5728 22.7259 45.903C22.0448 45.2332 21.1211 44.8569 20.1579 44.8569C19.1948 44.8569 18.2711 45.2332 17.59 45.903C16.909 46.5728 16.5264 47.4812 16.5264 48.4284C16.5264 49.3756 16.909 50.284 17.59 50.9537C18.2711 51.6235 19.1948 51.9998 20.1579 51.9998Z" fill="white"/>
<path d="M26.6705 19.75L21.3684 29.381M21.3684 29.381L30.2174 36.5476C30.5926 36.8333 30.8589 37.2262 31.0163 37.6667L34.6842 49.619M21.3684 29.381L14.7226 38.4762C14.0689 39.4167 12.8342 39.7738 11.7689 39.3333L2 35.3333" stroke="white" stroke-width="4" stroke-miterlimit="2" stroke-linecap="round" stroke-linejoin="round"/>
<path d="M48.0003 25.8096H39.5266C39.0908 25.8096 38.655 25.7024 38.2676 25.4881L34.3818 23.3334C29.5276 20.5357 24.2134 18.6191 18.6813 17.6429L14.7834 16.9643C14.2387 16.8691 13.6697 16.9643 13.1855 17.2262L5.63184 21.0477" stroke="white" stroke-width="4" stroke-miterlimit="2" stroke-linecap="round" stroke-linejoin="round"/>
</mask>
<g mask="url(#mask0_151_303)">
<path d="M-2.8418 -2.76172H55.2635V54.3811H-2.8418V-2.76172Z" fill="#272829"/>
</g>
</svg>
