<svg width="36" height="36" viewBox="0 0 36 36" fill="none" xmlns="http://www.w3.org/2000/svg">
<path d="M14 9C14 8.73478 14.1054 8.48043 14.2929 8.29289C14.4804 8.10536 14.7348 8 15 8H23C23.2652 8 23.5196 8.10536 23.7071 8.29289C23.8946 8.48043 24 8.73478 24 9C24 9.26522 23.8946 9.51957 23.7071 9.70711C23.5196 9.89464 23.2652 10 23 10H15C14.7348 10 14.4804 9.89464 14.2929 9.70711C14.1054 9.51957 14 9.26522 14 9ZM15 12C14.7348 12 14.4804 12.1054 14.2929 12.2929C14.1054 12.4804 14 12.7348 14 13C14 13.2652 14.1054 13.5196 14.2929 13.7071C14.4804 13.8946 14.7348 14 15 14H23C23.2652 14 23.5196 13.8946 23.7071 13.7071C23.8946 13.5196 24 13.2652 24 13C24 12.7348 23.8946 12.4804 23.7071 12.2929C23.5196 12.1054 23.2652 12 23 12H15ZM14 22C14 21.7348 14.1054 21.4804 14.2929 21.2929C14.4804 21.1054 14.7348 21 15 21H23C23.2652 21 23.5196 21.1054 23.7071 21.2929C23.8946 21.4804 24 21.7348 24 22C24 22.2652 23.8946 22.5196 23.7071 22.7071C23.5196 22.8946 23.2652 23 23 23H15C14.7348 23 14.4804 22.8946 14.2929 22.7071C14.1054 22.5196 14 22.2652 14 22ZM15 25C14.7348 25 14.4804 25.1054 14.2929 25.2929C14.1054 25.4804 14 25.7348 14 26C14 26.2652 14.1054 26.5196 14.2929 26.7071C14.4804 26.8946 14.7348 27 15 27H23C23.2652 27 23.5196 26.8946 23.7071 26.7071C23.8946 26.5196 24 26.2652 24 26C24 25.7348 23.8946 25.4804 23.7071 25.2929C23.5196 25.1054 23.2652 25 23 25H15Z" fill="#F5F5F5"/>
<path fill-rule="evenodd" clip-rule="evenodd" d="M4 21C4 20.7348 4.10536 20.4804 4.29289 20.2929C4.48043 20.1054 4.73478 20 5 20H10C10.2652 20 10.5196 20.1054 10.7071 20.2929C10.8946 20.4804 11 20.7348 11 21V26C11 26.2652 10.8946 26.5196 10.7071 26.7071C10.5196 26.8946 10.2652 27 10 27H5C4.73478 27 4.48043 26.8946 4.29289 26.7071C4.10536 26.5196 4 26.2652 4 26V21ZM6 22V25H9V22H6Z" fill="#F5F5F5"/>
<path d="M11.7069 9.70692C11.8891 9.51832 11.9899 9.26571 11.9876 9.00352C11.9853 8.74132 11.8801 8.49051 11.6947 8.3051C11.5093 8.11969 11.2585 8.01452 10.9963 8.01224C10.7341 8.00997 10.4815 8.11076 10.2929 8.29292L6.99992 11.5859L5.70692 10.2929C5.51832 10.1108 5.26571 10.01 5.00352 10.0122C4.74132 10.0145 4.49051 10.1197 4.3051 10.3051C4.11969 10.4905 4.01452 10.7413 4.01224 11.0035C4.00997 11.2657 4.11076 11.5183 4.29292 11.7069L6.99992 14.4139L11.7069 9.70692Z" fill="#F5F5F5"/>
<path fill-rule="evenodd" clip-rule="evenodd" d="M4 0C2.93913 0 1.92172 0.421427 1.17157 1.17157C0.421427 1.92172 0 2.93913 0 4V32C0 33.0609 0.421427 34.0783 1.17157 34.8284C1.92172 35.5786 2.93913 36 4 36H24C25.0609 36 26.0783 35.5786 26.8284 34.8284C27.5786 34.0783 28 33.0609 28 32V4C28 2.93913 27.5786 1.92172 26.8284 1.17157C26.0783 0.421427 25.0609 0 24 0H4ZM2 4C2 3.46957 2.21071 2.96086 2.58579 2.58579C2.96086 2.21071 3.46957 2 4 2H24C24.5304 2 25.0391 2.21071 25.4142 2.58579C25.7893 2.96086 26 3.46957 26 4V32C26 32.5304 25.7893 33.0391 25.4142 33.4142C25.0391 33.7893 24.5304 34 24 34H4C3.46957 34 2.96086 33.7893 2.58579 33.4142C2.21071 33.0391 2 32.5304 2 32V4ZM30 10C30 9.20435 30.3161 8.44129 30.8787 7.87868C31.4413 7.31607 32.2044 7 33 7C33.7956 7 34.5587 7.31607 35.1213 7.87868C35.6839 8.44129 36 9.20435 36 10V30.303L33 34.803L30 30.303V10ZM33 9C32.7348 9 32.4804 9.10536 32.2929 9.29289C32.1054 9.48043 32 9.73478 32 10V12H34V10C34 9.73478 33.8946 9.48043 33.7071 9.29289C33.5196 9.10536 33.2652 9 33 9ZM33 31.197L32 29.697V14H34V29.697L33 31.197Z" fill="#F5F5F5"/>
</svg>
